<?xml version="1.0" standalone="no"?>
<!DOCTYPE svg PUBLIC "-//W3C//DTD SVG 20010904//EN"
 "http://www.w3.org/TR/2001/REC-SVG-20010904/DTD/svg10.dtd">
<svg version="1.0" xmlns="http://www.w3.org/2000/svg"
 width="500.000000pt" height="500.000000pt" viewBox="0 0 500.000000 500.000000"
 preserveAspectRatio="xMidYMid meet">
<metadata>
Created by potrace 1.14, written by Peter Selinger 2001-2017
</metadata>
<g transform="translate(0.000000,500.000000) scale(0.100000,-0.100000)"
fill="#000000" stroke="none">
<path d="M0 3880 l0 -1120 830 0 830 0 0 -25 c0 -73 69 -189 150 -250 21 -16
39 -33 40 -37 0 -5 -416 -8 -925 -8 l-925 0 0 -155 0 -155 834 0 834 0 10 -29
c15 -43 88 -118 128 -133 27 -10 34 -17 34 -39 0 -42 24 -59 84 -59 60 0 76
12 76 56 0 23 5 34 19 39 11 3 35 17 55 30 19 13 37 21 39 17 17 -29 88 -275
85 -293 -2 -19 -21 -33 -82 -63 l-80 -39 40 -35 c21 -18 115 -95 207 -170 93
-76 203 -165 245 -200 42 -34 96 -77 119 -95 23 -17 45 -40 48 -49 3 -9 -13
-67 -36 -128 -23 -61 -40 -113 -37 -115 2 -3 53 4 114 15 60 10 188 33 284 49
207 37 221 37 245 11 18 -20 18 -33 7 -279 -7 -142 -15 -282 -19 -310 l-6 -51
62 0 61 0 0 58 c-1 31 -7 167 -14 302 -15 264 -12 286 33 297 14 3 63 -1 110
-10 243 -45 502 -89 506 -86 2 3 -14 55 -36 117 -30 84 -37 117 -30 130 6 11
154 135 330 277 177 141 318 261 315 267 -3 5 -37 23 -75 40 -51 22 -71 37
-75 54 -4 15 17 93 56 211 34 103 63 193 65 199 2 6 -74 -6 -174 -28 -192 -41
-224 -44 -238 -25 -5 6 -24 48 -42 92 -18 44 -34 81 -36 83 -1 1 -38 -35 -81
-80 -238 -249 -229 -241 -256 -235 -14 4 -29 14 -32 23 -3 9 3 59 13 112 67
334 122 624 118 628 -2 2 -56 -26 -120 -62 -110 -62 -118 -65 -139 -51 -14 9
-68 104 -133 236 -60 121 -113 221 -116 221 -3 0 -11 -11 -17 -25 -14 -30 -23
-31 -46 -6 -9 10 -34 26 -55 35 l-38 18 4 166 c3 92 6 173 8 180 4 9 195 12
915 12 l910 0 0 155 0 155 -912 2 -913 3 0 160 0 160 913 3 912 2 0 155 0 155
-912 2 -913 3 -3 158 -3 157 916 0 915 0 0 160 0 160 -2500 0 -2500 0 0 -1120z
m399 970 l46 -1 -34 -29 c-32 -28 -33 -30 -23 -69 11 -46 8 -49 -28 -21 -14
11 -29 20 -35 20 -5 0 -21 -9 -35 -20 -35 -27 -40 -25 -29 12 14 49 12 55 -21
75 -41 24 -38 33 14 33 42 0 45 2 57 38 l13 37 14 -37 c14 -36 17 -38 61 -38z
m445 35 c7 -34 8 -35 51 -35 25 0 45 -4 45 -10 0 -5 -3 -10 -7 -10 -5 -1 -18
-9 -31 -20 -21 -17 -22 -23 -13 -57 6 -20 9 -39 6 -41 -2 -2 -16 5 -31 17 -33
26 -42 26 -74 1 -36 -28 -41 -25 -25 20 14 40 14 40 -15 62 -40 29 -38 38 9
38 36 0 40 3 51 35 6 19 15 35 20 35 4 0 11 -16 14 -35z m502 3 c9 -30 14 -33
52 -36 23 -2 42 -6 42 -10 0 -4 -14 -16 -30 -27 -22 -15 -29 -25 -25 -40 3
-11 8 -31 12 -44 l6 -25 -36 23 -37 23 -37 -23 -36 -23 6 25 c4 13 10 33 12
44 4 14 -3 26 -25 40 -16 11 -30 23 -30 27 0 4 19 8 42 10 38 3 43 6 52 36 5
17 12 32 16 32 4 0 11 -15 16 -32z m563 -38 l46 -1 -37 -30 -37 -30 14 -39
c16 -45 11 -48 -25 -20 -32 25 -41 25 -74 -1 -15 -12 -29 -19 -31 -17 -3 2 0
21 6 41 9 34 8 40 -13 57 -13 11 -26 19 -30 20 -5 0 -8 5 -8 10 0 6 20 10 45
10 25 0 45 4 45 9 0 5 5 22 11 38 l12 28 15 -37 c14 -36 17 -38 61 -38z m446
30 c6 -28 10 -30 53 -30 l47 -1 -34 -29 c-32 -28 -33 -30 -23 -69 11 -46 8
-49 -28 -21 -14 11 -29 20 -35 20 -5 0 -21 -9 -35 -20 -35 -28 -39 -25 -26 21
10 40 10 42 -24 70 l-35 28 47 1 c44 0 47 2 58 35 13 40 25 38 35 -5z m499 5
c7 -34 8 -35 51 -35 25 0 45 -4 45 -10 0 -5 -3 -10 -7 -10 -5 -1 -18 -9 -31
-20 -21 -17 -22 -23 -13 -57 6 -20 9 -39 6 -41 -2 -2 -16 5 -31 17 -33 26 -39
26 -71 1 -37 -29 -42 -25 -27 18 13 36 12 38 -16 63 -17 14 -30 28 -30 32 0 3
19 7 42 9 38 3 43 6 52 36 12 42 22 41 30 -3z m-2250 -250 c7 -34 8 -35 51
-35 25 0 45 -4 45 -10 0 -5 -3 -10 -7 -10 -5 -1 -18 -9 -31 -20 -21 -17 -22
-23 -13 -57 6 -20 9 -39 6 -41 -2 -2 -16 5 -31 17 -33 26 -39 26 -71 1 -38
-29 -44 -25 -28 20 14 40 14 40 -15 62 -17 12 -30 25 -30 29 0 4 19 9 42 11
38 3 43 6 52 36 12 42 22 41 30 -3z m502 3 c9 -30 14 -33 52 -36 23 -2 42 -5
42 -8 0 -2 -14 -17 -30 -32 -29 -25 -30 -29 -19 -60 15 -43 9 -47 -26 -20
l-28 22 -40 -23 -40 -23 7 23 c3 13 9 33 11 44 4 14 -3 26 -25 40 -16 11 -30
23 -30 27 0 4 19 8 42 10 38 3 43 6 52 36 5 17 12 32 16 32 4 0 11 -15 16 -32z
m563 -38 l46 -1 -37 -30 -37 -30 14 -39 c16 -45 11 -48 -25 -20 -32 25 -41 25
-74 -1 -32 -26 -40 -21 -26 15 16 42 12 53 -20 73 -42 24 -38 33 15 33 25 0
45 4 45 9 0 5 5 22 11 38 l12 28 15 -37 c14 -36 17 -38 61 -38z m446 30 c6
-28 10 -30 51 -30 52 0 55 -9 14 -33 -32 -20 -36 -31 -20 -73 14 -36 6 -41
-26 -15 -33 26 -42 26 -74 1 -35 -28 -39 -25 -27 20 11 39 10 41 -23 70 l-35
29 47 1 c44 0 47 2 58 35 13 40 25 38 35 -5z m499 5 c7 -34 8 -35 51 -35 25 0
45 -4 45 -10 0 -5 -3 -10 -7 -10 -5 -1 -18 -9 -31 -20 -21 -17 -22 -23 -13
-57 6 -20 9 -39 6 -41 -2 -2 -16 5 -31 17 -33 26 -39 26 -71 1 -33 -25 -37
-21 -24 24 9 34 7 38 -20 58 -16 12 -29 25 -29 29 0 4 19 9 42 11 38 3 43 6
52 36 12 42 22 41 30 -3z m-2264 -242 c0 -9 16 -13 48 -13 l47 0 -33 -27 c-35
-26 -37 -42 -16 -97 6 -16 4 -17 -12 -7 -10 6 -28 18 -40 26 -18 14 -23 13
-54 -10 -18 -14 -35 -23 -36 -22 -2 2 2 20 8 41 12 38 11 40 -22 67 l-34 29
45 0 c45 0 46 1 59 43 l13 42 13 -30 c7 -16 13 -36 14 -42z m496 24 c9 -28 16
-33 55 -37 l44 -5 -33 -24 c-26 -18 -32 -29 -28 -45 3 -11 9 -32 13 -46 l6
-25 -37 28 -37 29 -34 -26 c-18 -14 -36 -26 -39 -26 -3 0 2 19 10 42 8 23 11
45 7 48 -5 4 -21 16 -37 28 l-29 22 46 0 c45 0 46 1 58 40 13 44 19 44 35 -3z
m501 6 c8 -36 11 -38 53 -43 l45 -5 -33 -23 c-21 -16 -31 -30 -28 -40 3 -10 8
-30 12 -46 l7 -29 -36 27 -36 28 -37 -29 -37 -28 7 30 c4 17 9 37 12 47 3 10
-7 24 -28 40 l-33 23 45 5 c42 5 46 7 54 43 5 20 13 37 17 37 4 0 11 -17 16
-37z m561 -43 l47 0 -37 -26 -36 -26 13 -44 c14 -47 13 -47 -37 -12 -28 19
-28 19 -64 -9 -32 -24 -36 -25 -31 -8 20 67 19 72 -15 99 l-33 26 43 0 c44 0
45 1 67 65 6 17 10 13 22 -22 14 -42 15 -43 61 -43z m452 13 c0 -9 16 -13 48
-13 l47 0 -33 -27 c-35 -27 -37 -42 -16 -97 7 -19 7 -19 -22 0 -16 12 -34 24
-40 27 -6 3 -26 -5 -44 -18 -19 -14 -35 -23 -36 -22 -2 2 2 20 8 41 12 38 11
40 -22 67 l-34 29 45 0 c45 0 46 1 59 43 l13 42 13 -30 c7 -16 13 -36 14 -42z
m496 24 c9 -28 16 -33 55 -37 l44 -5 -33 -24 c-26 -18 -32 -29 -28 -45 3 -11
9 -32 13 -46 l6 -25 -37 28 -37 29 -34 -27 c-38 -28 -44 -20 -25 31 10 24 7
30 -22 55 l-33 28 42 1 c40 0 43 2 54 40 13 44 19 44 35 -3z m-2252 -252 c7
-34 8 -35 51 -35 25 0 45 -4 45 -10 0 -5 -3 -10 -7 -10 -5 -1 -18 -9 -31 -20
-21 -17 -22 -23 -13 -57 6 -20 9 -39 6 -41 -2 -2 -16 5 -31 17 -33 26 -42 26
-74 1 -36 -28 -41 -25 -25 20 14 40 14 40 -15 62 -17 12 -30 25 -30 29 0 4 19
9 42 11 38 3 43 6 52 36 12 42 22 41 30 -3z m502 3 c9 -30 14 -33 52 -36 50
-4 53 -14 12 -39 -34 -20 -34 -19 -19 -62 15 -42 8 -46 -26 -19 l-28 22 -40
-23 -40 -23 7 23 c3 13 9 33 11 44 4 14 -3 26 -25 40 -16 11 -30 23 -30 27 0
4 19 8 42 10 38 3 43 6 52 36 5 17 12 32 16 32 4 0 11 -15 16 -32z m563 -38
l46 -1 -37 -30 -37 -30 14 -39 c16 -45 11 -48 -25 -20 -32 25 -41 25 -74 -1
-32 -26 -40 -21 -26 15 16 42 12 53 -20 73 -42 24 -38 33 15 33 25 0 45 4 45
9 0 5 5 22 11 38 l12 28 15 -37 c14 -36 17 -38 61 -38z m446 30 c6 -28 10 -30
51 -30 52 0 55 -9 14 -33 -32 -20 -36 -31 -20 -73 14 -36 7 -40 -28 -15 -37
26 -40 26 -72 1 -36 -28 -41 -25 -25 20 13 38 13 40 -12 60 -14 11 -30 20 -34
20 -5 0 -9 5 -9 10 0 6 20 10 44 10 42 0 45 2 56 35 13 40 25 38 35 -5z m499
5 c7 -34 8 -35 51 -35 25 0 45 -4 45 -10 0 -5 -3 -10 -7 -10 -5 -1 -18 -9 -31
-20 -21 -17 -22 -23 -13 -57 6 -20 9 -39 6 -41 -2 -2 -16 5 -31 17 -33 26 -39
26 -71 1 -33 -25 -37 -21 -24 24 9 34 7 38 -20 58 -16 12 -29 25 -29 29 0 4
19 9 42 11 38 3 43 6 52 36 12 42 22 41 30 -3z m-2271 -215 c6 -28 9 -30 54
-30 l48 -1 -35 -29 c-33 -29 -34 -31 -23 -70 12 -45 8 -48 -27 -20 -14 11 -29
20 -35 20 -5 0 -21 -9 -35 -20 -35 -28 -39 -25 -27 20 11 39 10 41 -23 70
l-35 29 47 1 c44 0 47 2 58 35 13 40 25 39 33 -5z m501 5 c7 -34 8 -35 51 -35
25 0 45 -4 45 -10 0 -5 -3 -10 -7 -10 -5 -1 -18 -9 -31 -20 -21 -17 -22 -23
-13 -57 6 -20 9 -39 6 -41 -2 -2 -16 5 -31 17 -33 26 -42 26 -74 1 -36 -28
-41 -25 -25 20 14 40 14 40 -15 62 -40 29 -38 38 9 38 36 0 40 3 51 35 6 19
15 35 20 35 4 0 11 -16 14 -35z m502 3 c9 -30 14 -33 52 -36 23 -2 42 -7 42
-13 0 -5 -3 -9 -7 -9 -5 -1 -19 -9 -31 -20 -22 -18 -23 -23 -12 -55 15 -46 10
-51 -25 -23 l-28 22 -40 -23 -40 -23 7 23 c3 13 9 33 11 44 4 14 -3 26 -25 40
-16 11 -30 23 -30 27 0 4 19 8 42 10 38 3 43 6 52 36 5 17 12 32 16 32 4 0 11
-15 16 -32z m563 -38 l46 -1 -37 -30 -37 -30 14 -39 c16 -45 11 -48 -25 -20
-32 25 -41 25 -74 -1 -32 -26 -40 -21 -26 15 15 41 13 49 -20 71 -41 27 -38
35 15 35 25 0 45 4 45 9 0 5 5 22 11 38 l12 28 15 -37 c14 -36 17 -38 61 -38z
m444 30 c6 -28 9 -30 52 -30 53 0 57 -9 15 -33 -33 -20 -35 -26 -21 -75 11
-37 6 -39 -29 -12 -14 11 -29 20 -35 20 -5 0 -21 -9 -35 -20 -35 -28 -39 -25
-27 20 11 39 10 41 -23 70 l-35 29 47 1 c44 0 47 2 58 35 13 40 25 39 33 -5z
m501 5 c7 -34 8 -35 51 -35 25 0 45 -4 45 -10 0 -5 -3 -10 -7 -10 -5 -1 -18
-9 -31 -20 -21 -17 -22 -23 -13 -57 6 -20 9 -39 6 -41 -2 -2 -16 5 -31 17 -33
26 -39 26 -71 1 -37 -29 -42 -25 -27 18 13 36 12 38 -16 63 -17 14 -30 28 -30
32 0 3 19 7 42 9 38 3 43 6 50 36 11 42 24 41 32 -3z m-2248 -258 c9 -28 16
-33 55 -37 l44 -5 -33 -24 c-26 -18 -32 -29 -28 -45 3 -11 9 -32 13 -46 l6
-25 -37 28 -37 29 -34 -26 c-18 -14 -36 -26 -39 -26 -3 0 2 19 10 42 8 23 11
45 7 48 -5 4 -21 16 -37 28 l-29 22 46 0 c45 0 46 1 58 40 13 44 19 44 35 -3z
m503 3 c11 -38 14 -40 54 -40 l42 -1 -33 -28 c-29 -25 -32 -31 -22 -55 19 -51
13 -59 -25 -31 l-34 27 -37 -29 -37 -28 7 30 c4 17 9 37 12 47 3 10 -7 24 -28
40 l-33 23 45 5 c42 5 46 7 54 43 5 20 13 37 16 37 4 0 12 -18 19 -40z m501 0
c11 -39 11 -40 58 -40 l47 0 -37 -26 -36 -26 13 -44 c13 -45 7 -56 -15 -28
-29 34 -49 36 -87 7 -31 -24 -35 -25 -30 -8 20 67 19 72 -15 99 l-33 26 43 0
c25 0 44 5 47 13 18 50 25 67 29 67 3 0 10 -18 16 -40z m510 -27 c0 -9 16 -13
48 -13 l47 0 -33 -27 c-35 -27 -37 -42 -16 -97 7 -19 7 -19 -22 0 -16 12 -34
24 -40 27 -6 3 -26 -5 -44 -18 -19 -14 -35 -23 -36 -22 -2 2 2 20 8 41 12 38
11 40 -22 67 l-34 29 46 0 c47 0 47 0 59 43 l12 42 13 -30 c7 -16 13 -36 14
-42z m496 24 c9 -28 16 -33 55 -37 l44 -5 -33 -24 c-26 -18 -32 -29 -28 -45 3
-11 9 -32 13 -46 l6 -25 -37 28 -37 29 -34 -27 c-38 -28 -44 -20 -25 31 10 24
7 30 -22 55 l-33 28 42 1 c40 0 43 2 54 40 13 44 19 44 35 -3z m-2218 -247
c50 0 53 -9 12 -33 -33 -20 -35 -26 -21 -75 11 -37 6 -39 -29 -12 -14 11 -29
20 -35 20 -5 0 -21 -9 -35 -20 -34 -26 -41 -25 -30 6 16 42 11 62 -20 81 -41
24 -38 33 14 33 42 0 45 2 57 38 l13 37 15 -37 c15 -35 19 -38 59 -38z m446
35 c7 -34 8 -35 51 -35 25 0 45 -4 45 -10 0 -5 -3 -10 -7 -10 -5 -1 -18 -9
-31 -20 -21 -17 -22 -23 -13 -57 6 -20 9 -39 6 -41 -2 -2 -16 5 -31 17 -33 26
-42 26 -74 1 -36 -28 -41 -25 -25 20 l14 40 -36 27 -37 28 49 5 c45 5 49 7 57
38 11 42 24 41 32 -3z m502 3 c9 -30 14 -33 52 -36 23 -2 42 -7 42 -13 0 -5
-3 -9 -7 -9 -5 -1 -19 -9 -31 -20 -22 -18 -23 -23 -12 -55 15 -46 10 -51 -25
-23 l-28 22 -40 -23 -40 -23 7 23 c3 13 9 33 11 44 4 14 -3 26 -25 40 -16 11
-30 23 -30 27 0 4 19 8 42 10 38 3 43 6 52 36 5 17 12 32 16 32 4 0 11 -15 16
-32z m563 -38 l46 -1 -37 -30 -37 -30 14 -39 c16 -45 11 -48 -25 -20 -32 25
-41 25 -74 -1 -32 -26 -40 -21 -26 15 16 42 12 53 -20 73 -42 24 -38 33 15 33
25 0 45 4 45 9 0 5 5 22 11 38 l12 28 15 -37 c14 -36 17 -38 61 -38z m446 30
c6 -28 10 -30 51 -30 52 0 55 -9 14 -33 -33 -20 -35 -26 -21 -75 11 -37 6 -39
-29 -12 -14 11 -29 20 -35 20 -5 0 -21 -9 -35 -20 -35 -28 -39 -25 -27 20 11
39 10 41 -23 70 l-35 29 47 1 c44 0 47 2 58 35 13 40 25 38 35 -5z m499 5 c7
-34 8 -35 51 -35 25 0 45 -4 45 -10 0 -5 -3 -10 -7 -10 -5 -1 -18 -9 -31 -20
-21 -17 -22 -23 -13 -57 6 -20 9 -39 6 -41 -2 -2 -16 5 -31 17 -33 26 -39 26
-71 1 -33 -25 -37 -21 -24 24 9 34 7 38 -20 58 -16 12 -29 25 -29 29 0 4 19 9
42 11 38 3 43 6 52 36 12 42 22 41 30 -3z m-2248 -250 c6 -34 8 -35 50 -35 24
0 44 -4 44 -10 0 -5 -3 -10 -7 -10 -5 -1 -18 -9 -31 -20 -21 -17 -22 -23 -13
-57 6 -20 9 -39 6 -41 -2 -2 -16 5 -31 17 -33 26 -39 26 -75 0 -32 -23 -38
-13 -19 35 8 23 6 29 -20 48 -40 29 -38 38 9 38 36 0 40 3 51 35 6 19 15 35
20 35 5 0 12 -16 16 -35z m500 3 c9 -30 14 -33 52 -36 23 -2 42 -5 42 -8 0 -3
-13 -16 -29 -30 -27 -22 -29 -27 -19 -60 5 -20 8 -38 5 -40 -2 -2 -17 6 -32
18 l-28 22 -40 -23 -40 -23 7 23 c3 13 9 33 11 44 4 14 -3 26 -25 40 -16 11
-30 23 -30 27 0 4 19 8 42 10 38 3 43 6 52 36 5 17 12 32 16 32 4 0 11 -15 16
-32z m563 -38 l46 -1 -37 -30 -37 -30 14 -39 c16 -45 11 -48 -25 -20 -32 25
-41 25 -74 -1 -32 -26 -40 -21 -26 15 16 42 12 53 -20 73 -42 24 -38 33 15 33
25 0 45 4 45 9 0 5 5 22 11 38 l12 28 15 -37 c14 -36 17 -38 61 -38z m446 30
c6 -28 10 -30 51 -30 52 0 55 -9 14 -33 -33 -20 -35 -26 -21 -75 11 -37 6 -39
-29 -12 -14 11 -29 20 -35 20 -5 0 -21 -9 -35 -20 -36 -28 -41 -25 -25 18 13
37 13 37 -24 69 l-36 32 47 1 c44 0 47 2 58 35 13 40 25 38 35 -5z m501 5 c6
-34 8 -35 50 -35 24 0 44 -4 44 -10 0 -5 -3 -10 -7 -10 -5 -1 -18 -9 -31 -20
-21 -17 -22 -23 -13 -57 6 -20 9 -39 6 -41 -2 -2 -16 5 -31 17 -15 11 -33 21
-40 21 -8 0 -14 4 -14 9 0 6 -20 24 -45 42 -25 18 -45 36 -45 40 0 4 19 9 42
11 38 3 43 6 52 36 12 42 23 41 32 -3z m-646 -169 c0 -41 2 -44 32 -50 79 -16
142 -107 150 -218 l5 -58 -53 0 -53 0 -6 48 c-14 104 -40 132 -123 132 -63 0
-94 -25 -112 -89 -29 -107 18 -184 198 -323 100 -78 145 -161 145 -269 0 -119
-54 -215 -138 -244 -37 -12 -40 -16 -43 -54 l-3 -41 -49 0 -49 0 -3 41 c-3 38
-6 42 -43 55 -51 17 -111 80 -125 132 -6 23 -12 72 -13 109 l-2 68 51 3 51 3
6 -68 c3 -38 11 -81 18 -97 16 -34 56 -56 103 -56 75 0 111 32 122 111 14 99
-26 161 -180 283 -130 104 -172 184 -164 312 8 119 66 204 151 221 24 5 27 10
27 49 l0 44 50 0 50 0 0 -44z m580 0 c0 -42 1 -44 35 -50 77 -15 137 -104 148
-218 l6 -58 -54 0 -53 0 -7 53 c-14 98 -41 127 -120 127 -25 0 -55 -5 -66 -10
-51 -28 -69 -152 -31 -226 21 -42 78 -97 180 -176 105 -82 146 -162 145 -284
-1 -116 -52 -199 -139 -229 -36 -12 -39 -16 -42 -55 l-3 -41 -47 3 c-46 3 -47
4 -52 41 -4 35 -9 40 -44 52 -87 30 -133 110 -138 240 l-3 70 51 3 51 3 7 -70
c3 -39 11 -82 18 -96 31 -68 161 -75 203 -12 9 14 18 48 22 76 11 95 -29 155
-186 280 -124 98 -169 188 -158 317 7 87 39 149 95 185 25 16 54 29 64 29 15
0 18 8 18 45 l0 45 50 0 50 0 0 -44z m580 0 c0 -43 1 -44 38 -51 25 -5 50 -20
78 -49 41 -43 57 -84 69 -178 l6 -48 -54 0 -55 0 -7 53 c-14 98 -41 127 -120
127 -25 0 -55 -5 -66 -10 -31 -17 -49 -64 -49 -130 0 -100 24 -133 198 -272
83 -67 117 -115 138 -199 35 -138 -23 -276 -132 -314 -36 -12 -39 -16 -42 -55
l-3 -41 -47 3 c-46 3 -47 4 -52 41 -4 35 -9 40 -44 52 -87 30 -132 108 -138
240 l-3 70 51 3 51 3 7 -72 c9 -87 21 -116 57 -135 34 -17 95 -18 129 -1 54
27 76 129 45 203 -21 50 -53 86 -143 159 -158 127 -199 201 -190 336 7 91 38
153 96 190 25 16 54 29 64 29 15 0 18 8 18 45 l0 45 50 0 50 0 0 -44z m-2780
-73 c0 -9 16 -13 48 -13 l47 0 -33 -27 c-35 -26 -37 -42 -16 -97 6 -16 4 -17
-12 -7 -10 6 -28 18 -40 26 -18 14 -23 13 -54 -10 -18 -14 -35 -23 -36 -22 -2
2 2 20 8 41 12 38 11 40 -22 67 l-34 29 45 0 c45 0 46 1 59 43 l13 42 13 -30
c7 -16 13 -36 14 -42z m496 24 c9 -28 16 -33 55 -37 l44 -5 -33 -24 c-26 -18
-32 -29 -28 -45 3 -11 9 -32 13 -46 l6 -25 -37 28 -37 29 -34 -26 c-18 -14
-36 -26 -39 -26 -3 0 2 19 10 42 8 23 11 45 7 48 -5 4 -21 16 -37 28 l-29 22
46 0 c45 0 46 1 58 40 13 44 19 44 35 -3z m494 28 c0 -8 5 -26 12 -40 9 -21
18 -25 52 -25 l41 -1 -33 -27 c-30 -25 -32 -29 -22 -62 15 -52 13 -53 -25 -24
l-35 26 -36 -27 -37 -28 7 29 c4 16 9 36 12 46 3 10 -7 24 -28 40 l-33 23 45
5 c42 5 46 7 54 43 9 36 26 51 26 22z m994 -39 c-25 -19 -26 -16 -12 24 11 33
12 33 21 12 8 -18 6 -25 -9 -36z m516 31 c0 -7 7 -24 14 -39 13 -25 13 -32 -9
-71 -21 -36 -72 -87 -89 -87 -3 0 2 19 10 42 l14 41 -32 28 -33 28 42 1 c40 0
43 2 54 40 11 36 29 46 29 17z m-550 -66 c0 -5 -6 -14 -14 -20 -12 -10 -20 -9
-40 4 -14 10 -26 19 -26 21 0 2 18 4 40 4 22 0 40 -4 40 -9z m-397 -111 c6
-25 -5 -26 -27 -1 -13 15 -14 20 -4 24 18 6 25 1 31 -23z m1241 15 c9 -9 20
-34 27 -57 10 -37 8 -47 -18 -104 -16 -34 -37 -73 -45 -86 l-16 -23 -32 30
c-42 39 -60 82 -60 145 0 51 12 88 34 102 20 14 94 9 110 -7z m-319 -105 c0
-62 -3 -79 -13 -75 -9 3 -12 -1 -8 -13 10 -35 67 -334 64 -335 -43 -22 -43
-22 -43 -123 1 -113 12 -143 78 -211 37 -38 39 -45 29 -68 -20 -45 -50 -32
-128 53 l-71 77 14 40 c23 64 20 191 -6 250 -32 73 -63 108 -164 189 -107 86
-132 111 -146 149 -21 55 -19 57 77 57 81 0 88 -2 97 -22 9 -20 19 -23 71 -26
73 -3 99 13 89 58 -5 22 0 32 25 54 17 14 32 26 33 26 1 0 2 -36 2 -80z m-800
-32 c9 -21 17 -23 75 -23 58 0 66 2 75 23 7 15 18 22 37 22 23 0 28 -4 28 -24
0 -83 64 -182 173 -269 97 -77 138 -119 158 -162 22 -47 24 -76 6 -70 -7 3
-21 -17 -35 -55 -19 -48 -28 -60 -45 -60 -67 1 -85 25 -94 129 -3 36 -10 72
-16 79 -5 7 -33 12 -68 12 -52 0 -61 -3 -75 -25 -14 -22 -15 -36 -6 -108 6
-45 13 -89 17 -98 5 -15 1 -15 -40 -6 -44 10 -46 11 -39 41 9 40 9 146 0 172
-5 17 5 30 61 72 l67 52 -90 0 c-88 0 -91 1 -120 31 -16 17 -60 55 -99 84 -85
65 -130 111 -144 148 -21 55 -19 57 77 57 81 0 88 -2 97 -22z m-26 -567 c-14
-38 -36 -51 -86 -50 -21 1 -29 4 -18 6 11 2 40 21 65 43 25 21 46 37 48 36 1
-2 -3 -17 -9 -35z"/>
<path d="M4980 2818 c0 -271 -3 -1016 -7 -1656 -6 -1080 -5 -1162 10 -1162 16
0 17 118 17 1655 0 1097 -3 1655 -10 1655 -7 0 -10 -171 -10 -492z"/>
<path d="M1570 1860 l-75 -60 -747 0 -748 0 0 -155 0 -155 547 -2 548 -3 -205
-162 -205 -163 -342 0 -343 0 0 -160 0 -159 136 -3 136 -3 -136 -107 -136
-108 0 -305 0 -305 823 0 824 0 6 698 c9 904 9 1212 0 1212 -5 -1 -42 -28 -83
-60z"/>
</g>
</svg>
